<?xml version="1.0" encoding="utf-8" ?>
<!-- Arike brand icon — dark variant (dark background, warm accent)
     Concept: Home + bookmark side-by-side (dashboard and bookmarks manager)
     Generated: 2026-05-16 via Recraft.ai Basic plan ($10/mo)
     License: Full commercial rights retained by owner per Recraft.ai paid-tier terms.
     Safe for MIT open-source redistribution. -->
<svg xmlns="http://www.w3.org/2000/svg" xmlns:xlink="http://www.w3.org/1999/xlink" width="1024" height="1024" viewBox="0 0 1024 1024"><rect width="1024" height="1024" rx="150" ry="150" fill="#303437"/>3 0Z"/><path fill="#5BA298" d="M412.224 233.643C429.708 232.72 435.681 241.519 447.364 252.387L473.693 276.943L553.475 351.423C576.423 372.663 599.232 394.053 621.901 415.591C633.226 426.26 645.621 437.364 656.262 448.644C659.698 452.286 661.376 457.496 661.828 462.485C662.53 469.973 660.153 477.425 655.245 483.123C650.435 488.808 643.509 492.278 636.076 492.728C623.339 493.607 617.361 487.964 608.583 480.335C607.812 504.606 608.422 531.655 608.43 556.12L608.5 697.94L608.568 749.842C608.586 757.085 609.008 772.31 608.047 778.618C607.044 784.794 604.122 790.499 599.695 794.922C589.794 804.765 576.214 803.156 563.351 803.148L531.544 803.134L420.125 803.214L303.028 803.155L269.138 803.205C255.555 803.218 241.55 804.901 231.031 794.632C226.536 790.25 223.61 784.51 222.705 778.299C221.78 771.534 222.179 754.214 222.166 746.648L222.102 686.758L222.039 480.611C216.245 485.373 210.79 490.233 203.326 491.987C195.71 493.835 187.672 492.519 181.042 488.342C174.821 484.46 170.467 478.193 169.001 471.008C167.848 465.475 168.857 455.532 172.357 451.328C182.082 439.647 196.085 427.648 207.238 417.238L274.267 354.676L359.254 275.438C372.226 263.403 385.168 250.689 398.605 239.15C402.507 235.799 407.23 234.411 412.224 233.643Z"/><path fill="#303437" d="M415.163 301.257C416.554 301.507 417.474 302.321 418.519 303.285C441.244 324.239 463.725 345.577 486.369 366.601L531.708 408.725C538.558 415.084 546.704 422.109 553.181 428.564C552.555 438.174 553.039 454.328 553.036 464.25L553.033 533.313L553.156 746.423L415.75 746.441L324.038 746.443C309.154 746.441 292.672 746.019 277.953 746.463L277.813 428.983C282.872 423.776 290.156 417.4 295.57 412.354L327.016 382.911C356.144 355.419 385.527 328.2 415.163 301.257Z"/><path fill="#CB6C40" d="M537.061 287.698L536.92 264.004C536.875 250.627 535.363 238.465 545.742 228.181C550.1 223.862 555.809 221.474 561.846 220.987C571.843 220.181 582.885 220.505 592.968 220.518L648.11 220.515L754.673 220.484C772.376 220.479 790.056 220.416 807.782 220.476C816.767 220.507 825.015 222.137 831.692 228.811C842.479 239.592 839.973 256.905 839.968 271.326L839.94 313.8L839.97 450.549L839.969 675.657L839.985 751.79C839.984 764.83 840.019 777.876 839.913 790.911C840.017 794.986 838.642 798.349 835.619 801.128C831.644 804.783 824.825 805.173 820.592 801.682C813.758 796.046 807.342 789.613 800.847 783.567L759.29 744.784C749.526 735.638 738.428 720.402 725.227 733.346C719.793 738.674 714.066 743.942 708.532 749.189C696.715 760.534 684.758 771.733 672.665 782.783C670.619 784.673 659.487 795.151 657.522 796.23C651.162 800.878 647.527 796.671 644.193 791.314C643.618 780.51 643.938 767.929 643.953 756.961L643.97 700.749L644.04 526.606C680.257 519.241 698.083 495.93 698.001 459.333C696.99 450.637 695.725 445.257 692.036 437.26C686.483 425.221 677.301 418.431 667.8 409.665C661.131 403.512 654.37 397.13 647.678 390.852L577.624 325.222C564.582 313.115 549.684 300.001 537.061 287.698Z"/><path fill="#8C4E2F" d="M698.001 459.333C701.139 470.498 696.347 486.178 690.897 496.003C686.846 503.439 681.239 509.915 674.458 514.989C670.85 517.715 645.919 530.513 645.348 531.604C644.009 534.166 644.71 752.012 644.754 774.681C644.764 780.205 645.339 785.735 645.245 791.25C647.658 793.605 650.656 796.769 654.27 796.801C655.126 796.809 656.152 796.245 657.522 796.23C651.162 800.878 647.527 796.671 644.193 791.314C643.618 780.51 643.938 767.929 643.953 756.961L643.97 700.749L644.04 526.606C680.257 519.241 698.083 495.93 698.001 459.333Z"/></svg>