<?xml version="1.0" encoding="utf-8" ?>
<!-- Arike brand icon — light variant (transparent background, dark icon paths)
     Concept: Home + bookmark side-by-side (dashboard and bookmarks manager)
     Generated: 2026-05-16 via Recraft.ai Basic plan ($10/mo)
     License: Full commercial rights retained by owner per Recraft.ai paid-tier terms.
     Safe for MIT open-source redistribution. -->
<svg xmlns="http://www.w3.org/2000/svg" xmlns:xlink="http://www.w3.org/1999/xlink" width="1024" height="1024" viewBox="0 0 1024 1024"><rect width="1024" height="1024" rx="150" ry="150" fill="#DADBDB"/><path fill="#5DA298" d="M410.956 233.608C418.395 232.805 425.999 233.876 431.95 238.649C441.656 246.433 450.652 255.528 459.761 264.008C477.836 280.72 495.827 297.522 513.733 314.416C560.028 357.943 607.158 400.693 652.98 444.769C658.767 450.336 662.054 457.071 662.056 465.242C662.12 472.567 659.231 479.609 654.04 484.778C643.424 495.291 628.105 495.641 616.586 487.207C613.73 485.116 611.581 483.084 609.051 480.647C608.458 489.021 608.725 499.491 608.737 508.014L608.751 552.407L608.681 706.458L608.736 751.086C608.832 765.934 611.714 782.792 600.639 794.117C589.89 805.108 577.982 803.266 564.007 803.218L534.109 803.175L422.266 803.108L300.643 803.14L266.625 803.18C253.244 803.202 241.803 804.86 231.347 794.632C226.741 790.078 223.747 784.146 222.817 777.735C222.041 772.656 222.385 756.11 222.392 750.186L222.401 695.401L222.223 480.283C216.486 485.205 210.923 490.189 203.421 492.101C196.239 493.945 188.617 492.808 182.285 488.95C173.641 483.67 168.356 474.516 168.608 464.302C168.713 461.102 169.913 454.927 171.964 452.255C180.848 440.681 193.462 430.162 204.151 420.188L258.357 369.584L347.72 286.192L379.031 256.838C385.29 250.976 391.529 244.978 398.055 239.417C402.458 235.665 405.444 234.789 410.956 233.608Z"/><path fill="#DADBDB" d="M415.584 300.988C417.843 302.234 431.377 315.172 434.192 317.816L470.853 352.051L525.894 403.223C533.66 410.428 546.446 421.381 553.231 428.762L553.425 621.993C553.418 662.996 553.931 705.574 553.294 746.504L415.25 746.476L278.014 746.362L277.855 428.965C283.707 422.938 292.295 415.392 298.601 409.529L339.279 371.545C355.937 355.684 372.747 339.984 389.706 324.445C397.074 317.659 408.07 306.951 415.584 300.988Z"/><defs><linearGradient id="gradient_0" gradientUnits="userSpaceOnUse" x1="561.83478" y1="560.19336" x2="908.02362" y2="434.97446"><stop offset="0" stop-color="#BC653B"/><stop offset="1" stop-color="#DD774A"/></linearGradient></defs><path fill="url(#gradient_0)" d="M537.041 287.331C537.024 273.869 535.666 253.884 538.106 241.255C542.852 216.682 573.615 220.497 590.728 220.547L638.376 220.554L806.028 220.478C822.743 220.622 837.436 226.22 839.781 245.64C840.801 254.09 840.081 264.549 840.081 273.262L840.08 321.913L840.058 476.118L840.045 689L840.068 758.447C840.076 768.768 840.055 779.064 840.219 789.402C840.288 793.734 838.349 798.564 835.119 801.577C831.236 805.198 824.834 805.024 820.755 801.648C814.091 796.133 807.634 789.878 801.229 783.95C788.154 771.911 775.145 759.801 762.204 747.618C754.477 740.233 740.272 722.221 729.431 730.241C722.5 735.368 713.796 744.147 707.397 750.169C696.079 760.888 684.66 771.5 673.142 782.004C667.887 786.805 662.994 792.126 657.276 796.321C654.946 798.03 651.064 798.112 648.802 796.298C645.465 794.654 644.278 791.686 644.136 788.153C643.733 778.089 643.926 767.926 643.946 757.855L643.974 704.478L643.975 526.716C657.963 524.687 670.892 518.102 680.759 507.981C694.182 494.156 698.166 478.972 697.975 460.245C695.604 441.968 691.113 430.694 677.132 418.036C668.668 410.373 659.825 402.253 651.492 394.442L577.521 325.091L550.484 299.99C546.541 296.32 540.606 291.162 537.041 287.331Z"/><path fill="#8F4F2E" d="M697.975 460.245C704.108 473.359 688.692 500.463 682.584 511.813C681.048 514.668 677.211 516.838 674.364 516.54C668.803 517.68 662.52 522.755 656.501 524.447C653.083 532.479 651.502 534.232 645.177 540.239L645.214 716.125C645.201 722.366 644.698 728.344 644.578 734.534C644.36 745.808 644.625 757.135 644.711 768.408C644.766 774.473 644.279 786.828 645.896 792.595C646.996 793.625 648.735 794.869 648.802 796.298C645.465 794.654 644.278 791.686 644.136 788.153C643.733 778.089 643.926 767.926 643.946 757.855L643.974 704.478L643.975 526.716C657.963 524.687 670.892 518.102 680.759 507.981C694.182 494.156 698.166 478.972 697.975 460.245Z"/></svg>